<svg xmlns="http://www.w3.org/2000/svg" xmlns:xlink="http://www.w3.org/1999/xlink" width="2000" zoomAndPan="magnify" viewBox="0 0 1500 1499.999933" height="2000" preserveAspectRatio="xMidYMid meet" version="1.0"><defs><g/><clipPath id="f3c52b855f"><path d="M 297.777344 317.375 L 1203 317.375 L 1203 1182.625 L 297.777344 1182.625 Z M 297.777344 317.375 " clip-rule="nonzero"/></clipPath><clipPath id="b6b64d9115"><path d="M 368.277344 317.375 L 1131.722656 317.375 C 1170.660156 317.375 1202.222656 348.9375 1202.222656 387.875 L 1202.222656 1112.125 C 1202.222656 1151.0625 1170.660156 1182.625 1131.722656 1182.625 L 368.277344 1182.625 C 329.339844 1182.625 297.777344 1151.0625 297.777344 1112.125 L 297.777344 387.875 C 297.777344 348.9375 329.339844 317.375 368.277344 317.375 Z M 368.277344 317.375 " clip-rule="nonzero"/></clipPath><clipPath id="dd60353825"><path d="M 0.777344 0.375 L 905.398438 0.375 L 905.398438 865.625 L 0.777344 865.625 Z M 0.777344 0.375 " clip-rule="nonzero"/></clipPath><clipPath id="bfbc3884db"><path d="M 71.277344 0.375 L 834.722656 0.375 C 873.660156 0.375 905.222656 31.9375 905.222656 70.875 L 905.222656 795.125 C 905.222656 834.0625 873.660156 865.625 834.722656 865.625 L 71.277344 865.625 C 32.339844 865.625 0.777344 834.0625 0.777344 795.125 L 0.777344 70.875 C 0.777344 31.9375 32.339844 0.375 71.277344 0.375 Z M 71.277344 0.375 " clip-rule="nonzero"/></clipPath><clipPath id="8baa70ef32"><rect x="0" width="906" y="0" height="866"/></clipPath><clipPath id="8d2172fd98"><path d="M 345.613281 356.667969 L 1155 356.667969 L 1155 1143.332031 L 345.613281 1143.332031 Z M 345.613281 356.667969 " clip-rule="nonzero"/></clipPath><clipPath id="1ffb39576e"><path d="M 416.113281 356.667969 L 1083.886719 356.667969 C 1122.824219 356.667969 1154.386719 388.234375 1154.386719 427.167969 L 1154.386719 1072.832031 C 1154.386719 1111.765625 1122.824219 1143.332031 1083.886719 1143.332031 L 416.113281 1143.332031 C 377.175781 1143.332031 345.613281 1111.765625 345.613281 1072.832031 L 345.613281 427.167969 C 345.613281 388.234375 377.175781 356.667969 416.113281 356.667969 Z M 416.113281 356.667969 " clip-rule="nonzero"/></clipPath><clipPath id="384fe7609c"><path d="M 0.613281 0.667969 L 809 0.667969 L 809 787.332031 L 0.613281 787.332031 Z M 0.613281 0.667969 " clip-rule="nonzero"/></clipPath><clipPath id="a82a35ec6b"><path d="M 71.113281 0.667969 L 738.886719 0.667969 C 777.824219 0.667969 809.386719 32.234375 809.386719 71.167969 L 809.386719 716.832031 C 809.386719 755.765625 777.824219 787.332031 738.886719 787.332031 L 71.113281 787.332031 C 32.175781 787.332031 0.613281 755.765625 0.613281 716.832031 L 0.613281 71.167969 C 0.613281 32.234375 32.175781 0.667969 71.113281 0.667969 Z M 71.113281 0.667969 " clip-rule="nonzero"/></clipPath><clipPath id="77278b700c"><rect x="0" width="810" y="0" height="788"/></clipPath></defs><g clip-path="url(#f3c52b855f)"><g clip-path="url(#b6b64d9115)"><g transform="matrix(1, 0, 0, 1, 297, 317)"><g clip-path="url(#8baa70ef32)"><g clip-path="url(#dd60353825)"><g clip-path="url(#bfbc3884db)"><path fill="#00914b" d="M 0.777344 0.375 L 906.582031 0.375 L 906.582031 865.625 L 0.777344 865.625 Z M 0.777344 0.375 " fill-opacity="1" fill-rule="nonzero"/></g></g></g></g></g></g><g clip-path="url(#8d2172fd98)"><g clip-path="url(#1ffb39576e)"><g transform="matrix(1, 0, 0, 1, 345, 356)"><g clip-path="url(#77278b700c)"><g clip-path="url(#384fe7609c)"><g clip-path="url(#a82a35ec6b)"><path fill="#00bf63" d="M 0.613281 0.667969 L 808.785156 0.667969 L 808.785156 787.332031 L 0.613281 787.332031 Z M 0.613281 0.667969 " fill-opacity="1" fill-rule="nonzero"/></g></g></g></g></g></g><g fill="#ffffff" fill-opacity="1"><g transform="translate(553.092674, 943.169431)"><g><path d="M 276.859375 -222.65625 L 276.859375 -356.9375 L 347.171875 -356.9375 L 347.171875 0 L 276.859375 0 L 276.859375 -162.59375 L 116.9375 -162.59375 L 116.9375 0 L 46.390625 0 L 46.390625 -356.9375 L 116.9375 -356.9375 L 116.9375 -222.65625 Z M 276.859375 -222.65625 "/></g></g></g><g fill="#000000" fill-opacity="1"><g transform="translate(1349.999917, 1368.999942)"><g><path d="M 1.015625 0 L 1.015625 -1.390625 L 4.90625 -1.390625 L 4.90625 -12.3125 L 4.6875 -12.359375 C 4.050781 -12.046875 3.492188 -11.804688 3.015625 -11.640625 C 2.546875 -11.472656 1.941406 -11.3125 1.203125 -11.15625 L 1.203125 -12.703125 C 1.941406 -12.859375 2.671875 -13.066406 3.390625 -13.328125 C 4.109375 -13.597656 4.757812 -13.914062 5.34375 -14.28125 L 6.546875 -14.28125 L 6.546875 -1.390625 L 10.046875 -1.390625 L 10.046875 0 Z M 1.015625 0 "/></g></g></g></svg>